HIERARCHY
ROOT Hips
{
	OFFSET 0.000000 0.000000 0.000000
	CHANNELS 6 Xposition Yposition Zposition Zrotation Yrotation Xrotation 
	JOINT LHipJoint
	{
		OFFSET 0.000000 0.000000 0.000000
		CHANNELS 3 Zrotation Yrotation Xrotation
		JOINT LeftUpLeg
		{
			OFFSET 8.178360 -10.767780 5.035740
			CHANNELS 3 Zrotation Yrotation Xrotation
			JOINT LeftLeg
			{
				OFFSET 14.688660 -40.356780 0.000000
				CHANNELS 3 Zrotation Yrotation Xrotation
				JOINT LeftFoot
				{
					OFFSET 15.373200 -42.237540 0.000000
					CHANNELS 3 Zrotation Yrotation Xrotation
					JOINT LeftToeBase
					{
						OFFSET 0.945840 -2.598660 13.935300
						CHANNELS 3 Zrotation Yrotation Xrotation
						End Site
						{
							OFFSET 0.000000 0.000000 0.000000
						}
					}
				}
			}
		}
	}
	JOINT RHipJoint
	{
		OFFSET 0.000000 0.000000 0.000000
		CHANNELS 3 Zrotation Yrotation Xrotation
		JOINT RightUpLeg
		{
			OFFSET -7.833120 -10.767780 5.035740
			CHANNELS 3 Zrotation Yrotation Xrotation
			JOINT RightLeg
			{
				OFFSET -15.255180 -41.913300 0.000000
				CHANNELS 3 Zrotation Yrotation Xrotation
				JOINT RightFoot
				{
					OFFSET -15.409560 -42.337380 0.000000
					CHANNELS 3 Zrotation Yrotation Xrotation
					JOINT RightToeBase
					{
						OFFSET -0.988380 -2.715540 14.178900
						CHANNELS 3 Zrotation Yrotation Xrotation
						End Site
						{
							OFFSET 0.000000 0.000000 0.000000
						}
					}
				}
			}
		}
	}
	JOINT LowerBack
	{
		OFFSET 0.000000 0.000000 0.000000
		CHANNELS 3 Zrotation Yrotation Xrotation
		JOINT Spine
		{
			OFFSET 0.169620 12.213540 -1.160280
			CHANNELS 3 Zrotation Yrotation Xrotation
			JOINT Spine1
			{
				OFFSET 0.340320 12.293100 -0.256500
				CHANNELS 3 Zrotation Yrotation Xrotation
				JOINT Neck
				{
					OFFSET 0.000000 0.000000 0.000000
					CHANNELS 3 Zrotation Yrotation Xrotation
					JOINT Neck1
					{
						OFFSET -0.325020 10.477440 1.032120
						CHANNELS 3 Zrotation Yrotation Xrotation
						JOINT Head
						{
							OFFSET 0.624420 10.568160 -0.743820
							CHANNELS 3 Zrotation Yrotation Xrotation
							End Site
							{
								OFFSET 0.000000 0.000000 0.000000
							}
						}
					}
				}
				JOINT LeftShoulder
				{
					OFFSET 0.000000 0.000000 0.000000
					CHANNELS 3 Zrotation Yrotation Xrotation
					JOINT LeftArm
					{
						OFFSET 20.174460 7.205340 -1.867260
						CHANNELS 3 Zrotation Yrotation Xrotation
						JOINT LeftForeArm
						{
							OFFSET 29.898000 -0.000000 -0.000000
							CHANNELS 3 Zrotation Yrotation Xrotation
							JOINT LeftHand
							{
								OFFSET 20.901360 -0.000000 -0.000000
								CHANNELS 3 Zrotation Yrotation Xrotation
								JOINT LeftFingerBase
								{
									OFFSET 0.000000 0.000000 0.000000
									CHANNELS 3 Zrotation Yrotation Xrotation
									JOINT LeftHandIndex1
									{
										OFFSET 4.291560 -0.000000 -0.000000
										CHANNELS 3 Zrotation Yrotation Xrotation
										End Site
										{
											OFFSET 0.000000 0.000000 0.000000
										}
									}
								}
								JOINT LThumb
								{
									OFFSET 0.000000 0.000000 0.000000
									CHANNELS 3 Zrotation Yrotation Xrotation
									End Site
									{
										OFFSET 0.000000 0.000000 0.000000
									}
								}
							}
						}
					}
				}
				JOINT RightShoulder
				{
					OFFSET 0.000000 0.000000 0.000000
					CHANNELS 3 Zrotation Yrotation Xrotation
					JOINT RightArm
					{
						OFFSET -18.819600 8.244300 -2.427900
						CHANNELS 3 Zrotation Yrotation Xrotation
						JOINT RightForeArm
						{
							OFFSET -31.451400 -0.000000 -0.000000
							CHANNELS 3 Zrotation Yrotation Xrotation
							JOINT RightHand
							{
								OFFSET -20.665020 -0.000000 -0.000000
								CHANNELS 3 Zrotation Yrotation Xrotation
								JOINT RightFingerBase
								{
									OFFSET 0.000000 0.000000 0.000000
									CHANNELS 3 Zrotation Yrotation Xrotation
									JOINT RightHandIndex1
									{
										OFFSET -3.735180 -0.000000 -0.000000
										CHANNELS 3 Zrotation Yrotation Xrotation
										End Site
										{
											OFFSET 0.000000 0.000000 0.000000
										}
									}
								}
								JOINT RThumb
								{
									OFFSET 0.000000 0.000000 0.000000
									CHANNELS 3 Zrotation Yrotation Xrotation
									End Site
									{
										OFFSET 0.000000 0.000000 0.000000
									}
								}
							}
						}
					}
				}
			}
		}
	}
}
MOTION
Frames:	6
Frame Time:	0.0333333
29.667678 108.703836 38.404656 -176.010590 48.686849 -175.572840 -3.506607 0.195096 1.084358 -18.665528 -5.609504 -22.616276 -0.215699 7.504241 21.898240 0.758182 -2.820790 15.902404 0.024900 1.019200 2.801700 0.975256 -1.320269 1.855385 22.146263 -5.555441 2.604845 -1.692201 -8.105206 25.553011 -0.824077 3.817304 3.177927 -0.405200 4.086500 -11.320200 3.930728 5.936611 8.105974 -0.029937 8.320660 1.806212 -5.866200 4.541592 -1.909438 -8.145550 4.001403 -9.776812 2.330073 13.731384 36.270739 5.423500 5.132500 19.213800 -6.030383 -1.217846 -1.646892 -82.814945 11.674583 18.837786 18.474664 -26.550526 -5.304402 -1.136706 -2.369217 7.035923 19.167495 22.330820 8.704500 -7.125000 0.000000 0.000000 -10.321500 55.905600 -2.782800 4.918749 0.329816 -1.144281 81.858747 6.623294 19.519880 -22.797492 32.325412 -7.187713 0.330813 -0.064902 3.679629 -14.355693 8.292530 -2.173800 7.125000 0.000000 0.000000 8.797400 -21.417100 5.036000 
26.907462 108.603900 40.509288 -175.794270 51.015788 -174.683063 -3.591563 0.104212 0.878010 -17.759860 -6.616074 -23.597898 -0.557693 6.821082 19.646309 0.649143 0.090613 17.522139 0.001100 0.212000 0.582600 1.062000 -1.296799 1.909236 22.361246 -3.727394 2.344368 -1.167511 -7.131056 22.449718 -0.716888 2.847932 0.238556 -0.372200 3.918600 -10.847700 4.772407 6.450651 7.970436 -0.072480 9.092092 2.000321 -6.457904 4.974545 -1.249761 -8.616017 3.587284 -9.797754 1.860941 13.414444 36.474916 5.267400 4.845900 19.371400 -6.082852 -1.222171 -1.630337 -83.203128 10.994313 18.732655 18.270363 -26.236851 -5.172007 -1.203113 -2.322991 8.112773 19.488657 22.102625 8.783300 -7.125000 0.000000 0.000000 -9.847500 55.722700 -2.609300 4.911017 0.337190 -1.102028 81.192471 8.426341 20.287755 -23.027057 32.601357 -7.326210 0.338332 -0.060898 3.868030 -14.588017 8.160347 -2.174400 7.125000 0.000000 0.000000 8.629300 -21.547600 4.911700 
24.044904 108.580422 42.901074 -175.510631 52.311901 -173.853163 -3.605022 -0.032413 0.701143 -16.599917 -6.992703 -24.933381 -0.817468 6.254602 17.851513 0.589871 1.222157 17.738332 0.073100 -1.744400 -4.799800 1.131844 -1.215169 1.902823 22.911620 -1.775593 0.175399 -1.096792 -7.099467 22.262963 -0.670479 2.299471 -1.501229 -0.150700 2.501900 -6.894900 5.114509 6.301036 8.694199 0.051162 8.948828 1.928178 -6.537916 4.882423 -1.720131 -9.236685 3.382314 -9.771556 1.414294 13.437944 36.614105 5.165400 4.654500 19.525800 -6.068261 -1.233361 -1.673654 -84.491098 11.236524 16.683381 18.758319 -26.799668 -5.414010 -1.239449 -2.352680 8.102313 20.182508 22.467888 9.257500 -7.125000 0.000000 0.000000 -9.263200 56.280200 -2.578100 4.888163 0.350763 -1.095425 80.747322 9.523328 21.199441 -22.898711 32.433750 -7.245351 0.337958 -0.055054 4.233390 -14.616480 7.822050 -2.087300 7.125000 0.000000 0.000000 8.621200 -21.899900 4.837200 
21.447828 108.585240 44.919618 -175.571431 52.828366 -173.817506 -3.580093 -0.076330 0.632156 -15.490037 -8.033768 -25.042449 -0.771228 6.387789 18.295436 0.478027 -0.220853 14.159171 0.125400 -2.283100 -6.288800 1.145219 -1.158460 1.855441 22.703480 -1.331993 -2.196958 -1.197446 -7.361900 23.013589 -0.916416 3.532603 -1.943714 -0.043900 1.353000 -3.720700 5.009680 5.626806 8.986841 0.380043 8.048162 2.041024 -5.833833 4.420323 -1.838462 -10.085498 3.481125 -9.975724 0.980773 13.903983 36.613944 5.143300 4.581300 19.577100 -6.018862 -1.220811 -1.722969 -86.186676 11.880416 14.306820 19.512583 -27.712681 -5.836462 -1.105353 -2.456158 7.115808 19.244321 23.036202 8.977200 -7.125000 0.000000 0.000000 -10.661300 56.718000 -3.086400 4.887685 0.320672 -1.104726 80.114885 10.008991 22.541845 -22.856884 32.377097 -7.224650 0.322589 -0.058675 3.871578 -14.073268 8.131776 -2.086500 7.125000 0.000000 0.000000 9.013200 -21.599800 5.124700 
18.921192 108.727314 46.908060 -175.781113 53.091363 -174.565736 -3.520378 0.030873 0.646421 -14.080607 -10.636420 -23.744398 -0.349144 7.288514 21.077572 0.467257 -2.137553 10.247707 0.025100 -1.023700 -2.814000 1.135023 -1.142263 1.804339 22.514293 -0.651967 -3.990070 -1.376530 -7.794017 24.261843 -0.959508 3.828361 -1.521734 -0.027100 1.063200 -2.922600 4.798963 5.487669 9.943053 0.379627 7.901820 2.072509 -5.789527 4.323618 -2.369514 -9.334204 2.917637 -8.978930 0.476642 12.454260 36.030880 4.467100 4.181600 19.091400 -5.987992 -1.221790 -1.706597 -85.559862 12.382672 16.438837 19.666663 -27.928693 -5.955055 -1.112457 -2.461076 3.333277 20.911858 21.966869 9.466500 -7.125000 0.000000 0.000000 -8.206200 55.950800 -2.215200 4.867005 0.325488 -1.091797 80.551166 9.195856 21.426141 -23.145101 32.666465 -7.376404 0.350364 -0.040660 3.891263 -14.957758 7.515001 -2.051900 7.125000 0.000000 0.000000 8.377000 -22.213400 4.636700 
16.458366 109.106580 48.544926 -176.551343 53.646889 -175.759645 -3.383974 0.189437 0.672656 -13.446724 -13.030770 -22.364907 0.515584 8.868764 25.952132 0.407733 -2.821148 7.197157 0.077800 -1.799100 -4.950700 1.100460 -1.139458 1.736038 21.888953 0.487341 -5.373766 -1.523129 -8.159897 25.297734 -0.889984 3.564628 -0.557739 -0.011200 0.682400 -1.875400 4.462655 5.396185 10.179250 0.249566 7.789762 2.352285 -5.822616 4.285785 -2.015205 -9.046370 2.156483 -8.461332 0.546100 10.739838 35.615456 4.183600 3.604900 18.744000 -6.037730 -1.215698 -1.640635 -84.238215 11.621567 19.294392 19.290210 -27.478544 -5.768914 -1.050636 -2.439783 2.319542 20.277904 21.418483 8.957600 -7.125000 0.000000 0.000000 -8.643100 55.210300 -2.178600 4.871700 0.369474 -1.058606 81.251375 8.453485 19.825412 -23.379155 32.934624 -7.508819 0.367815 -0.054196 3.874052 -15.560952 7.940428 -2.262700 7.125000 0.000000 0.000000 7.912200 -21.738900 4.460800 
